<svg width="44" height="44" viewBox="0 0 44 44" fill="none" xmlns="http://www.w3.org/2000/svg">
<path d="M7.3335 7.33335C7.3335 5.30831 8.97512 3.66669 11.0002 3.66669H25.6668C26.1531 3.66669 26.6194 3.85984 26.9632 4.20366L36.1299 13.3703C36.4737 13.7141 36.6668 14.1805 36.6668 14.6667V36.6667C36.6668 38.6917 35.0252 40.3334 33.0002 40.3334H11.0002C8.97512 40.3334 7.3335 38.6917 7.3335 36.6667V7.33335ZM32.2408 14.6667L25.6668 8.09274V14.6667H32.2408ZM22.0002 7.33335L11.0002 7.33335V36.6667H33.0002V18.3334H23.8335C22.821 18.3334 22.0002 17.5125 22.0002 16.5V7.33335ZM22.0002 22C23.0127 22 23.8335 22.8208 23.8335 23.8334V25.6667H25.6668C26.6793 25.6667 27.5002 26.4875 27.5002 27.5C27.5002 28.5125 26.6793 29.3334 25.6668 29.3334H23.8335V31.1667C23.8335 32.1792 23.0127 33 22.0002 33C20.9876 33 20.1668 32.1792 20.1668 31.1667V29.3334H18.3335C17.321 29.3334 16.5002 28.5125 16.5002 27.5C16.5002 26.4875 17.321 25.6667 18.3335 25.6667H20.1668V23.8334C20.1668 22.8208 20.9876 22 22.0002 22Z" fill="#AAAAAA"/>
</svg>
