<svg width="50" height="50" viewBox="0 0 50 50" fill="none" xmlns="http://www.w3.org/2000/svg">
<path d="M23.616 4.69298C24.4054 3.99134 25.5948 3.99134 26.3842 4.69298L45.1342 21.3596C45.9942 22.1241 46.0716 23.4409 45.3072 24.3008C44.5428 25.1608 43.226 25.2383 42.366 24.4739L41.6668 23.8523V39.5834C41.6668 41.8846 39.8013 43.7501 37.5001 43.7501H12.5001C10.1989 43.7501 8.33344 41.8846 8.33344 39.5834V23.8523L7.6342 24.4739C6.77423 25.2383 5.45741 25.1608 4.693 24.3008C3.92859 23.4409 4.00605 22.1241 4.86601 21.3596L23.616 4.69298ZM12.5001 20.1486V39.5834H18.7501V29.1667C18.7501 28.0162 19.6828 27.0834 20.8334 27.0834H29.1668C30.3174 27.0834 31.2501 28.0162 31.2501 29.1667V39.5834H37.5001V20.1486L25.0001 9.03749L12.5001 20.1486ZM27.0834 39.5834V31.2501H22.9168V39.5834H27.0834Z" fill="black"/>
</svg>
