<svg width="50" height="50" viewBox="0 0 50 50" fill="none" xmlns="http://www.w3.org/2000/svg">
<path d="M23.6159 4.69298C24.4053 3.99134 25.5948 3.99134 26.3841 4.69298L45.1341 21.3596C45.9941 22.1241 46.0716 23.4409 45.3071 24.3008C44.5427 25.1608 43.2259 25.2383 42.366 24.4739L41.6667 23.8523V39.5834C41.6667 41.8846 39.8012 43.7501 37.5 43.7501H12.5C10.1989 43.7501 8.33338 41.8846 8.33338 39.5834V23.8523L7.63413 24.4739C6.77417 25.2383 5.45735 25.1608 4.69294 24.3008C3.92853 23.4409 4.00599 22.1241 4.86595 21.3596L23.6159 4.69298ZM12.5 20.1486V39.5834H18.75V29.1667C18.75 28.0162 19.6828 27.0834 20.8334 27.0834H29.1667C30.3173 27.0834 31.25 28.0162 31.25 29.1667V39.5834H37.5V20.1486L25 9.03749L12.5 20.1486ZM27.0834 39.5834V31.2501H22.9167V39.5834H27.0834Z" fill="#39A9CB"/>
</svg>
