<svg width="50" height="50" viewBox="0 0 50 50" fill="none" xmlns="http://www.w3.org/2000/svg">
<path d="M23.6159 4.69292C24.4052 3.99128 25.5947 3.99128 26.3841 4.69292L45.1341 21.3596C45.994 22.124 46.0715 23.4408 45.3071 24.3008C44.5427 25.1607 43.2259 25.2382 42.3659 24.4738L41.6666 23.8522V39.5834C41.6666 41.8845 39.8012 43.75 37.5 43.75H12.5C10.1988 43.75 8.33331 41.8845 8.33331 39.5834V23.8522L7.63407 24.4738C6.77411 25.2382 5.45729 25.1607 4.69288 24.3008C3.92847 23.4408 4.00593 22.124 4.86589 21.3596L23.6159 4.69292ZM12.5 20.1485V39.5834H18.75V29.1667C18.75 28.0161 19.6827 27.0834 20.8333 27.0834H29.1666C30.3172 27.0834 31.25 28.0161 31.25 29.1667V39.5834H37.5V20.1485L25 9.03743L12.5 20.1485ZM27.0833 39.5834V31.25H22.9166V39.5834H27.0833Z" fill="#575656"/>
</svg>
