<svg width="50" height="50" viewBox="0 0 50 50" fill="none" xmlns="http://www.w3.org/2000/svg">
<path d="M4.16675 10.4167C4.16675 8.11548 6.03223 6.25 8.33342 6.25H41.6668C43.9679 6.25 45.8334 8.11548 45.8334 10.4167V14.5833C45.8334 16.1397 44.9801 17.4968 43.7157 18.2122C43.7384 18.3883 43.7501 18.5678 43.7501 18.75V39.5833C43.7501 41.8845 41.8846 43.75 39.5834 43.75H10.4167C8.11556 43.75 6.25008 41.8845 6.25008 39.5833V18.75C6.25008 18.5678 6.26178 18.3883 6.28446 18.2122C5.02011 17.4968 4.16675 16.1397 4.16675 14.5833V10.4167ZM41.6668 14.5833V10.4167H8.33342V14.5833H41.6668ZM10.4167 18.75V39.5833H39.5834V18.75H10.4167ZM16.6667 25C16.6667 23.8494 17.5995 22.9167 18.7501 22.9167H31.2501C32.4007 22.9167 33.3334 23.8494 33.3334 25C33.3334 26.1506 32.4007 27.0833 31.2501 27.0833H18.7501C17.5995 27.0833 16.6667 26.1506 16.6667 25Z" fill="#39A9CB"/>
</svg>
