<svg width="50" height="50" viewBox="0 0 50 50" fill="none" xmlns="http://www.w3.org/2000/svg">
<path d="M4.16663 10.4167C4.16663 8.11548 6.03211 6.25 8.33329 6.25H41.6666C43.9678 6.25 45.8333 8.11548 45.8333 10.4167V14.5833C45.8333 16.1397 44.9799 17.4968 43.7156 18.2122C43.7383 18.3883 43.75 18.5678 43.75 18.75V39.5833C43.75 41.8845 41.8845 43.75 39.5833 43.75H10.4166C8.11544 43.75 6.24996 41.8845 6.24996 39.5833V18.75C6.24996 18.5678 6.26166 18.3883 6.28434 18.2122C5.01999 17.4968 4.16663 16.1397 4.16663 14.5833V10.4167ZM41.6666 14.5833V10.4167H8.33329V14.5833H41.6666ZM10.4166 18.75V39.5833H39.5833V18.75H10.4166ZM16.6666 25C16.6666 23.8494 17.5994 22.9167 18.75 22.9167H31.25C32.4006 22.9167 33.3333 23.8494 33.3333 25C33.3333 26.1506 32.4006 27.0833 31.25 27.0833H18.75C17.5994 27.0833 16.6666 26.1506 16.6666 25Z" fill="#0D0D0D"/>
</svg>
