<svg width="50" height="50" viewBox="0 0 50 50" fill="none" xmlns="http://www.w3.org/2000/svg">
<path d="M4.16669 10.4167C4.16669 8.11548 6.03217 6.25 8.33335 6.25H41.6667C43.9679 6.25 45.8334 8.11548 45.8334 10.4167V14.5833C45.8334 16.1397 44.98 17.4968 43.7156 18.2122C43.7383 18.3883 43.75 18.5678 43.75 18.75V39.5833C43.75 41.8845 41.8845 43.75 39.5834 43.75H10.4167C8.1155 43.75 6.25002 41.8845 6.25002 39.5833V18.75C6.25002 18.5678 6.26172 18.3883 6.2844 18.2122C5.02005 17.4968 4.16669 16.1397 4.16669 14.5833V10.4167ZM41.6667 14.5833V10.4167H8.33335V14.5833H41.6667ZM10.4167 18.75V39.5833H39.5834V18.75H10.4167ZM16.6667 25C16.6667 23.8494 17.5994 22.9167 18.75 22.9167H31.25C32.4006 22.9167 33.3334 23.8494 33.3334 25C33.3334 26.1506 32.4006 27.0833 31.25 27.0833H18.75C17.5994 27.0833 16.6667 26.1506 16.6667 25Z" fill="#575656"/>
</svg>
