<svg width="44" height="44" viewBox="0 0 44 44" xmlns="http://www.w3.org/2000/svg">
<path d="M32.463 4.20366C31.7471 3.4877 30.5863 3.4877 29.8703 4.20366L25.6667 8.4073L23.2964 6.03699C22.5804 5.32103 21.4196 5.32103 20.7036 6.03699L9.70364 17.037C8.98768 17.753 8.98768 18.9138 9.70364 19.6297C10.4196 20.3457 11.5804 20.3457 12.2964 19.6297L22 9.92608L23.0739 11L18.8703 15.2037L6.03697 28.037C5.69315 28.3808 5.5 28.8471 5.5 29.3334V36.6667C5.5 37.6792 6.32081 38.5 7.33333 38.5H14.6667C15.1529 38.5 15.6192 38.3069 15.963 37.9631L28.7964 25.1297L39.7964 14.1297C40.5123 13.4138 40.5123 12.253 39.7964 11.537L32.463 4.20366ZM26.963 12.2964L31.1667 8.09274L35.9073 12.8334L27.5 21.2406L22.7594 16.5L26.963 12.2964ZM9.16667 30.0927L20.1667 19.0927L24.9073 23.8334L13.9073 34.8334H9.16667V30.0927Z" fill="#AAAAAA"/>
</svg>
