<svg width="50" height="50" viewBox="0 0 50 50" fill="none" xmlns="http://www.w3.org/2000/svg">
<path d="M33.9435 6.86019C34.7571 6.0466 36.0762 6.0466 36.8898 6.86019L43.1398 13.1102C43.9534 13.9238 43.9534 15.2429 43.1398 16.0565L24.3898 34.8065C23.9991 35.1972 23.4692 35.4167 22.9167 35.4167H16.6667C15.5161 35.4167 14.5833 34.4839 14.5833 33.3333V27.0833C14.5833 26.5308 14.8028 26.0009 15.1935 25.6102L33.9435 6.86019ZM18.75 27.9463V31.25H22.0537L38.7204 14.5833L35.4167 11.2796L18.75 27.9463ZM6.25 14.5833C6.25 12.2821 8.11548 10.4167 10.4167 10.4167H20.8333C21.9839 10.4167 22.9167 11.3494 22.9167 12.5C22.9167 13.6506 21.9839 14.5833 20.8333 14.5833H10.4167V39.5833H35.4167V29.1667C35.4167 28.0161 36.3494 27.0833 37.5 27.0833C38.6506 27.0833 39.5833 28.0161 39.5833 29.1667V39.5833C39.5833 41.8845 37.7179 43.75 35.4167 43.75H10.4167C8.11548 43.75 6.25 41.8845 6.25 39.5833V14.5833Z" fill="#575656"/>
</svg>
